<svg width="134" height="39" viewBox="0 0 134 39" fill="none" xmlns="http://www.w3.org/2000/svg">
<g clip-path="url(#clip0_50_26585)">
<g clip-path="url(#clip1_50_26585)">
<path d="M0 0H38V38H0V0Z" fill="#FFB800"/>
<path d="M8.49763 26.904L8.47412 26.8569C9.2263 26.0341 9.76693 25.0936 9.88446 23.4479L10.4956 14.3257C10.5896 13.0326 10.2841 11.2458 9.2263 10.611L9.24981 10.564H14.6326C14.3505 10.9166 14.3975 11.6455 15.0087 12.7034L17.3357 16.7003C18.0644 17.9699 18.5815 19.2394 18.7931 20.5796H18.8871C19.2397 19.1454 19.8508 18.0639 20.6265 16.7003L22.9301 12.6329C23.5177 11.5984 23.5647 10.9166 23.2826 10.564H28.7124L28.7359 10.611C27.6782 11.1988 27.2786 13.0326 27.3726 14.3257L28.1013 23.4479C28.1953 24.5764 28.6419 26.0106 29.4881 26.8569L29.4646 26.904H24.0818L24.0583 26.8569C24.5049 26.4573 24.9515 25.4228 24.834 23.9416L24.4579 19.0749C24.3639 17.9699 24.3874 16.7473 24.599 15.031H24.5049C24.0113 16.6062 23.4707 17.7112 22.695 19.0278L20.0859 23.4479C19.2397 24.8585 19.0281 25.799 18.9811 26.2927H18.7931C18.7226 25.799 18.4875 24.8585 17.6178 23.4714L14.8206 19.0043C14.0685 17.7818 13.5748 16.6768 13.1282 15.031H13.0342C13.2223 16.7943 13.2223 18.0639 13.1752 19.0749L12.9167 23.9416C12.8462 25.4228 13.2458 26.4573 13.6924 26.8569L13.6689 26.904H8.49763Z" fill="#282828"/>
<path fill-rule="evenodd" clip-rule="evenodd" d="M33.9488 16.4541C33.5619 14.1657 32.6622 12.0515 31.3721 10.234L28.1862 9.819L27.771 6.63153C25.9549 5.34136 23.8424 4.44113 21.5556 4.05291L19.0047 6.01579L16.4521 4.05153C14.1666 4.43824 12.0551 5.33634 10.2393 6.62403L9.82305 9.8192L6.62665 10.2356C5.33907 12.0501 4.44061 14.1601 4.05289 16.444L6.02006 19.0005L4.05309 21.5566C4.44102 23.8408 5.33979 25.951 6.62775 27.7656L9.82327 28.1819L10.2393 31.3758C12.0554 32.6638 14.1672 33.562 16.4531 33.9486L19.0047 31.9851L21.5546 33.9472C23.8418 33.5591 25.9547 32.6587 27.771 31.3683L28.1861 28.1818L31.3712 27.7669C32.6616 25.9494 33.5615 23.8351 33.9486 21.5465L31.9894 19.0005L33.9488 16.4541ZM18.9995 36.062L18.5601 36.0562C9.3403 35.8228 1.93799 28.2755 1.93799 18.9995C1.93825 9.57681 9.57681 1.93825 18.9995 1.93799C28.4224 1.93799 36.0618 9.57665 36.062 18.9995L36.0562 19.4399C35.8228 28.6597 28.2755 36.062 18.9995 36.062Z" fill="#282828"/>
</g>
</g>
<path d="M41.726 16L41.704 15.956C42.408 15.186 42.914 14.306 43.024 12.766L43.596 4.23C43.684 3.02 43.398 1.348 42.408 0.754L42.43 0.709999H47.468C47.204 1.04 47.248 1.722 47.82 2.712L49.998 6.452C50.68 7.64 51.164 8.828 51.362 10.082H51.45C51.78 8.74 52.352 7.728 53.078 6.452L55.234 2.646C55.784 1.678 55.828 1.04 55.564 0.709999H60.646L60.668 0.754C59.678 1.304 59.304 3.02 59.392 4.23L60.074 12.766C60.162 13.822 60.58 15.164 61.372 15.956L61.35 16H56.312L56.29 15.956C56.708 15.582 57.126 14.614 57.016 13.228L56.664 8.674C56.576 7.64 56.598 6.496 56.796 4.89H56.708C56.246 6.364 55.74 7.398 55.014 8.63L52.572 12.766C51.78 14.086 51.582 14.966 51.538 15.428H51.362C51.296 14.966 51.076 14.086 50.262 12.788L47.644 8.608C46.94 7.464 46.478 6.43 46.06 4.89H45.972C46.148 6.54 46.148 7.728 46.104 8.674L45.862 13.228C45.796 14.614 46.17 15.582 46.588 15.956L46.566 16H41.726ZM63.4842 16V15.956C64.0342 15.582 64.6722 14.504 64.6722 12.7V4.01C64.6722 2.184 64.0562 1.128 63.4842 0.754V0.709999H68.8962V0.754C68.3462 1.128 67.7082 2.206 67.7082 4.01V12.7C67.7082 14.526 68.3242 15.582 68.8962 15.956V16H63.4842ZM71.6078 16V15.956C72.1578 15.582 72.7958 14.504 72.7958 12.7V3.9C72.7958 2.712 72.4218 1.304 71.6078 0.754V0.709999H76.6018C76.6458 1.15 76.7778 1.612 77.5038 2.822L80.6718 8.146C81.3318 9.246 82.0358 10.808 82.6958 12.502H82.7838C82.4758 10.742 82.4318 9.202 82.4318 7.97V4.01C82.4318 2.184 81.8818 1.128 81.3098 0.754V0.709999H86.3918V0.754C85.8198 1.128 85.2038 2.206 85.2038 4.01V12.7C85.2038 14.504 85.8198 15.582 86.3918 15.956V16H81.7498C81.5078 15.406 81.0898 14.614 80.6498 13.91L77.5478 8.872C76.4918 7.178 75.9198 5.88 75.2598 3.856H75.1718C75.5238 5.946 75.5678 7.376 75.5678 8.96V12.7C75.5678 14.526 76.1178 15.582 76.6898 15.956V16H71.6078ZM89.0987 16V15.956C89.6487 15.582 90.2867 14.504 90.2867 12.7V4.01C90.2867 2.184 89.6707 1.128 89.0987 0.754V0.709999H94.5107V0.754C93.9607 1.128 93.3227 2.206 93.3227 4.01V12.7C93.3227 14.526 93.9387 15.582 94.5107 15.956V16H89.0987ZM41.726 38L41.704 37.956C42.408 37.186 42.914 36.306 43.024 34.766L43.596 26.23C43.684 25.02 43.398 23.348 42.408 22.754L42.43 22.71H47.468C47.204 23.04 47.248 23.722 47.82 24.712L49.998 28.452C50.68 29.64 51.164 30.828 51.362 32.082H51.45C51.78 30.74 52.352 29.728 53.078 28.452L55.234 24.646C55.784 23.678 55.828 23.04 55.564 22.71H60.646L60.668 22.754C59.678 23.304 59.304 25.02 59.392 26.23L60.074 34.766C60.162 35.822 60.58 37.164 61.372 37.956L61.35 38H56.312L56.29 37.956C56.708 37.582 57.126 36.614 57.016 35.228L56.664 30.674C56.576 29.64 56.598 28.496 56.796 26.89H56.708C56.246 28.364 55.74 29.398 55.014 30.63L52.572 34.766C51.78 36.086 51.582 36.966 51.538 37.428H51.362C51.296 36.966 51.076 36.086 50.262 34.788L47.644 30.608C46.94 29.464 46.478 28.43 46.06 26.89H45.972C46.148 28.54 46.148 29.728 46.104 30.674L45.862 35.228C45.796 36.614 46.17 37.582 46.588 37.956L46.566 38H41.726ZM72.0918 22.71H76.5138V22.754C75.9638 23.172 75.3258 24.074 74.7538 24.998L70.5958 31.862V34.524C70.5958 36.416 71.2118 37.582 71.9378 37.956V38H66.2398V37.956C66.8778 37.582 67.5818 36.394 67.5818 34.524V31.972L63.3578 24.998C62.8078 24.096 62.1258 23.172 61.5758 22.754V22.71H66.2618V22.754C66.0638 23.348 66.3498 24.272 66.7678 24.998L68.4618 27.924C68.7038 28.32 68.9238 28.738 69.1438 29.354H69.2318C69.4518 28.716 69.7158 28.32 69.9358 27.924L71.6078 24.998C72.0258 24.272 72.3118 23.348 72.0918 22.754V22.71ZM88.5355 22.534L88.9095 26.56L88.8655 26.582C88.3595 25.702 87.3255 24.954 86.0055 24.954H84.3555V34.524C84.3555 36.416 84.9715 37.582 85.6975 37.956V38H79.9995V37.956C80.6375 37.582 81.3415 36.394 81.3415 34.524V24.954H79.6695C78.3495 24.954 77.3155 25.702 76.8095 26.582L76.7655 26.56L77.1395 22.534C78.1515 22.666 79.0755 22.71 80.1535 22.71H85.5215C86.5995 22.71 87.5235 22.666 88.5355 22.534ZM105.009 22.754C104.459 23.128 103.821 24.206 103.821 26.01V34.788C103.821 36.526 104.437 37.582 105.009 37.956V38H99.685V37.956C100.191 37.582 100.807 36.504 100.807 34.788V30.938H94.955V34.7C94.955 36.526 95.549 37.582 96.077 37.956V38H90.753V37.956C91.303 37.582 91.941 36.504 91.941 34.7V26.01C91.941 24.184 91.325 23.128 90.753 22.754V22.71H96.077V22.754C95.571 23.128 94.955 24.206 94.955 26.01V28.738H100.807V26.01C100.807 24.184 100.213 23.128 99.685 22.754V22.71H105.009V22.754ZM112.283 38.33C110.501 38.352 108.829 38.044 107.839 37.45L107.465 33.754L107.509 33.732C108.829 35.448 110.259 36.086 112.063 36.042C113.845 35.998 114.615 35.25 114.615 34.062C114.615 32.544 113.273 31.972 111.777 31.356C109.863 30.564 107.729 29.662 107.729 26.604C107.729 24.426 109.599 22.424 113.009 22.424C114.153 22.424 115.187 22.556 116.463 22.886L116.749 26.494H116.705C115.759 25.042 114.505 24.69 113.229 24.69C111.557 24.69 110.699 25.262 110.699 26.384C110.699 27.66 111.931 28.166 113.361 28.76C115.319 29.574 117.651 30.542 117.651 33.842C117.651 36.284 115.847 38.286 112.283 38.33Z" fill="#E5E7EB"/>
<defs>
<clipPath id="clip0_50_26585">
<rect width="38" height="38" rx="19" fill="white"/>
</clipPath>
<clipPath id="clip1_50_26585">
<rect width="38" height="38" rx="19" fill="white"/>
</clipPath>
</defs>
</svg>
