<svg width="134" height="40" viewBox="0 0 134 40" fill="none" xmlns="http://www.w3.org/2000/svg">
<g clip-path="url(#clip0_38_586)">
<g clip-path="url(#clip1_38_586)">
<path d="M0 1H38V39H0V1Z" fill="#FFB800"/>
<path d="M8.49763 27.904L8.47412 27.8569C9.2263 27.0341 9.76693 26.0936 9.88446 24.4479L10.4956 15.3257C10.5896 14.0326 10.2841 12.2458 9.2263 11.611L9.24981 11.564H14.6326C14.3505 11.9166 14.3975 12.6455 15.0087 13.7034L17.3357 17.7003C18.0644 18.9699 18.5815 20.2394 18.7931 21.5796H18.8871C19.2397 20.1454 19.8508 19.0639 20.6265 17.7003L22.9301 13.6329C23.5177 12.5984 23.5647 11.9166 23.2826 11.564H28.7124L28.7359 11.611C27.6782 12.1988 27.2786 14.0326 27.3726 15.3257L28.1013 24.4479C28.1953 25.5764 28.6419 27.0106 29.4881 27.8569L29.4646 27.904H24.0818L24.0583 27.8569C24.5049 27.4573 24.9515 26.4228 24.834 24.9416L24.4579 20.0749C24.3639 18.9699 24.3874 17.7473 24.599 16.031H24.5049C24.0113 17.6062 23.4707 18.7112 22.695 20.0278L20.0859 24.4479C19.2397 25.8585 19.0281 26.799 18.9811 27.2927H18.7931C18.7226 26.799 18.4875 25.8585 17.6178 24.4714L14.8206 20.0043C14.0685 18.7818 13.5748 17.6768 13.1282 16.031H13.0342C13.2223 17.7943 13.2223 19.0639 13.1752 20.0749L12.9167 24.9416C12.8462 26.4228 13.2458 27.4573 13.6924 27.8569L13.6689 27.904H8.49763Z" fill="#282828"/>
<path fill-rule="evenodd" clip-rule="evenodd" d="M33.9488 17.4541C33.5619 15.1657 32.6622 13.0515 31.3721 11.234L28.1862 10.819L27.771 7.63153C25.9549 6.34136 23.8424 5.44113 21.5556 5.05291L19.0047 7.01579L16.4521 5.05153C14.1666 5.43824 12.0551 6.33634 10.2393 7.62403L9.82305 10.8192L6.62665 11.2356C5.33907 13.0501 4.44061 15.1601 4.05289 17.444L6.02006 20.0005L4.05309 22.5566C4.44102 24.8408 5.33979 26.951 6.62775 28.7656L9.82327 29.1819L10.2393 32.3758C12.0554 33.6638 14.1672 34.562 16.4531 34.9486L19.0047 32.9851L21.5546 34.9472C23.8418 34.5591 25.9547 33.6587 27.771 32.3683L28.1861 29.1818L31.3712 28.7669C32.6616 26.9494 33.5615 24.8351 33.9486 22.5465L31.9894 20.0005L33.9488 17.4541ZM18.9995 37.062L18.5601 37.0562C9.3403 36.8228 1.93799 29.2755 1.93799 19.9995C1.93825 10.5768 9.57681 2.93825 18.9995 2.93799C28.4224 2.93799 36.0618 10.5766 36.062 19.9995L36.0562 20.4399C35.8228 29.6597 28.2755 37.062 18.9995 37.062Z" fill="#282828"/>
</g>
</g>
<path d="M41.726 17L41.704 16.956C42.408 16.186 42.914 15.306 43.024 13.766L43.596 5.23C43.684 4.02 43.398 2.348 42.408 1.754L42.43 1.71H47.468C47.204 2.04 47.248 2.722 47.82 3.712L49.998 7.452C50.68 8.64 51.164 9.828 51.362 11.082H51.45C51.78 9.74 52.352 8.728 53.078 7.452L55.234 3.646C55.784 2.678 55.828 2.04 55.564 1.71H60.646L60.668 1.754C59.678 2.304 59.304 4.02 59.392 5.23L60.074 13.766C60.162 14.822 60.58 16.164 61.372 16.956L61.35 17H56.312L56.29 16.956C56.708 16.582 57.126 15.614 57.016 14.228L56.664 9.674C56.576 8.64 56.598 7.496 56.796 5.89H56.708C56.246 7.364 55.74 8.398 55.014 9.63L52.572 13.766C51.78 15.086 51.582 15.966 51.538 16.428H51.362C51.296 15.966 51.076 15.086 50.262 13.788L47.644 9.608C46.94 8.464 46.478 7.43 46.06 5.89H45.972C46.148 7.54 46.148 8.728 46.104 9.674L45.862 14.228C45.796 15.614 46.17 16.582 46.588 16.956L46.566 17H41.726ZM63.4842 17V16.956C64.0342 16.582 64.6722 15.504 64.6722 13.7V5.01C64.6722 3.184 64.0562 2.128 63.4842 1.754V1.71H68.8962V1.754C68.3462 2.128 67.7082 3.206 67.7082 5.01V13.7C67.7082 15.526 68.3242 16.582 68.8962 16.956V17H63.4842ZM71.6078 17V16.956C72.1578 16.582 72.7958 15.504 72.7958 13.7V4.9C72.7958 3.712 72.4218 2.304 71.6078 1.754V1.71H76.6018C76.6458 2.15 76.7778 2.612 77.5038 3.822L80.6718 9.146C81.3318 10.246 82.0358 11.808 82.6958 13.502H82.7838C82.4758 11.742 82.4318 10.202 82.4318 8.97V5.01C82.4318 3.184 81.8818 2.128 81.3098 1.754V1.71H86.3918V1.754C85.8198 2.128 85.2038 3.206 85.2038 5.01V13.7C85.2038 15.504 85.8198 16.582 86.3918 16.956V17H81.7498C81.5078 16.406 81.0898 15.614 80.6498 14.91L77.5478 9.872C76.4918 8.178 75.9198 6.88 75.2598 4.856H75.1718C75.5238 6.946 75.5678 8.376 75.5678 9.96V13.7C75.5678 15.526 76.1178 16.582 76.6898 16.956V17H71.6078ZM89.0987 17V16.956C89.6487 16.582 90.2867 15.504 90.2867 13.7V5.01C90.2867 3.184 89.6707 2.128 89.0987 1.754V1.71H94.5107V1.754C93.9607 2.128 93.3227 3.206 93.3227 5.01V13.7C93.3227 15.526 93.9387 16.582 94.5107 16.956V17H89.0987ZM41.726 39L41.704 38.956C42.408 38.186 42.914 37.306 43.024 35.766L43.596 27.23C43.684 26.02 43.398 24.348 42.408 23.754L42.43 23.71H47.468C47.204 24.04 47.248 24.722 47.82 25.712L49.998 29.452C50.68 30.64 51.164 31.828 51.362 33.082H51.45C51.78 31.74 52.352 30.728 53.078 29.452L55.234 25.646C55.784 24.678 55.828 24.04 55.564 23.71H60.646L60.668 23.754C59.678 24.304 59.304 26.02 59.392 27.23L60.074 35.766C60.162 36.822 60.58 38.164 61.372 38.956L61.35 39H56.312L56.29 38.956C56.708 38.582 57.126 37.614 57.016 36.228L56.664 31.674C56.576 30.64 56.598 29.496 56.796 27.89H56.708C56.246 29.364 55.74 30.398 55.014 31.63L52.572 35.766C51.78 37.086 51.582 37.966 51.538 38.428H51.362C51.296 37.966 51.076 37.086 50.262 35.788L47.644 31.608C46.94 30.464 46.478 29.43 46.06 27.89H45.972C46.148 29.54 46.148 30.728 46.104 31.674L45.862 36.228C45.796 37.614 46.17 38.582 46.588 38.956L46.566 39H41.726ZM72.0918 23.71H76.5138V23.754C75.9638 24.172 75.3258 25.074 74.7538 25.998L70.5958 32.862V35.524C70.5958 37.416 71.2118 38.582 71.9378 38.956V39H66.2398V38.956C66.8778 38.582 67.5818 37.394 67.5818 35.524V32.972L63.3578 25.998C62.8078 25.096 62.1258 24.172 61.5758 23.754V23.71H66.2618V23.754C66.0638 24.348 66.3498 25.272 66.7678 25.998L68.4618 28.924C68.7038 29.32 68.9238 29.738 69.1438 30.354H69.2318C69.4518 29.716 69.7158 29.32 69.9358 28.924L71.6078 25.998C72.0258 25.272 72.3118 24.348 72.0918 23.754V23.71ZM88.5355 23.534L88.9095 27.56L88.8655 27.582C88.3595 26.702 87.3255 25.954 86.0055 25.954H84.3555V35.524C84.3555 37.416 84.9715 38.582 85.6975 38.956V39H79.9995V38.956C80.6375 38.582 81.3415 37.394 81.3415 35.524V25.954H79.6695C78.3495 25.954 77.3155 26.702 76.8095 27.582L76.7655 27.56L77.1395 23.534C78.1515 23.666 79.0755 23.71 80.1535 23.71H85.5215C86.5995 23.71 87.5235 23.666 88.5355 23.534ZM105.009 23.754C104.459 24.128 103.821 25.206 103.821 27.01V35.788C103.821 37.526 104.437 38.582 105.009 38.956V39H99.685V38.956C100.191 38.582 100.807 37.504 100.807 35.788V31.938H94.955V35.7C94.955 37.526 95.549 38.582 96.077 38.956V39H90.753V38.956C91.303 38.582 91.941 37.504 91.941 35.7V27.01C91.941 25.184 91.325 24.128 90.753 23.754V23.71H96.077V23.754C95.571 24.128 94.955 25.206 94.955 27.01V29.738H100.807V27.01C100.807 25.184 100.213 24.128 99.685 23.754V23.71H105.009V23.754ZM112.283 39.33C110.501 39.352 108.829 39.044 107.839 38.45L107.465 34.754L107.509 34.732C108.829 36.448 110.259 37.086 112.063 37.042C113.845 36.998 114.615 36.25 114.615 35.062C114.615 33.544 113.273 32.972 111.777 32.356C109.863 31.564 107.729 30.662 107.729 27.604C107.729 25.426 109.599 23.424 113.009 23.424C114.153 23.424 115.187 23.556 116.463 23.886L116.749 27.494H116.705C115.759 26.042 114.505 25.69 113.229 25.69C111.557 25.69 110.699 26.262 110.699 27.384C110.699 28.66 111.931 29.166 113.361 29.76C115.319 30.574 117.651 31.542 117.651 34.842C117.651 37.284 115.847 39.286 112.283 39.33Z" fill="#1F2937"/>
<defs>
<clipPath id="clip0_38_586">
<rect y="1" width="38" height="38" rx="19" fill="white"/>
</clipPath>
<clipPath id="clip1_38_586">
<rect y="1" width="38" height="38" rx="19" fill="white"/>
</clipPath>
</defs>
</svg>
