<svg width="174" height="40" viewBox="0 0 174 40" fill="none" xmlns="http://www.w3.org/2000/svg">
<rect width="174" height="40" fill="white"/>
<rect width="40" height="40" rx="20" fill="#724DDD"/>
<path d="M23.0243 19.4401C23.7293 19.5259 24.374 19.7746 24.9586 20.1863C25.5604 20.598 26.0332 21.1126 26.3771 21.7301C26.7382 22.3477 26.9187 22.9995 26.9187 23.6857C26.9187 25.3324 26.3599 26.6275 25.2423 27.571C24.1247 28.4973 22.6719 28.9604 20.8837 28.9604H13.0435V28.909C13.4561 28.6002 13.8086 28.1285 14.1009 27.4938C14.4103 26.8419 14.5651 25.9928 14.5651 24.9465V15.0659C14.5651 14.071 14.4189 13.2476 14.1267 12.5957C13.8516 11.9267 13.4905 11.4379 13.0435 11.1291V11.0776H20.1616C22.1045 11.0776 23.5573 11.4464 24.5202 12.1841C25.5002 12.9217 25.9902 14.0538 25.9902 15.5805C25.9902 16.2152 25.8441 16.807 25.5518 17.3559C25.2767 17.9048 24.907 18.3594 24.4428 18.7196C23.9958 19.0627 23.523 19.2771 23.0243 19.3629V19.4401ZM18.0984 13.5992V18.2308H19.9553C20.7118 18.2308 21.2964 18.0249 21.709 17.6132C22.1389 17.1844 22.3538 16.5668 22.3538 15.7606C22.3538 15.0402 22.1475 14.4998 21.7348 14.1396C21.3222 13.7794 20.729 13.5992 19.9553 13.5992H18.0984ZM20.3679 26.4388C21.3136 26.4388 22.0271 26.1815 22.5085 25.6669C22.99 25.1351 23.2307 24.4318 23.2307 23.557C23.2307 22.6822 22.99 21.996 22.5085 21.4985C22.0271 20.9839 21.3136 20.7266 20.3679 20.7266H18.0984V26.4388H20.3679Z" fill="white"/>
<path fill-rule="evenodd" clip-rule="evenodd" d="M14.1397 5.61009L7.86387 5.21729L7.64499 8.49198L8.71445 11.0639L7.43761 11.5948L7.37238 12.5708L7.96098 18.2186L8.49651 18.7327L8.06176 19.1856L8.16633 20.1889L8.67243 24.7321L10.6951 26.1479L8.76139 28.9106L8.18559 32.6777L10.892 34.572L14.7754 34.302L15.7886 32.8543L17.5785 34.1072L18.4688 34.0453L24.6214 34.6139L27.3105 33.9886L27.4951 34.7825H32.1739L32.3781 32.4746L31.4177 30.1651L32.627 29.6622L32.8508 27.1338L31.8336 26.6264L32.6457 24.9986L31.4556 19.8109L31.6672 17.6776L31.2603 17.4746L31.7934 16.4062L32.1739 12.5708V10.2578L30.9262 8.40986L32.1739 7.56751V5.21729L27.0888 6.76738L20.8506 6.03014L16.8716 5.78109L15.0744 6.9945L14.1397 5.61009ZM17.1862 6.93721L14.769 8.56919L13.5119 6.70724L8.92024 6.41984L8.79443 8.30216L10.1972 11.6756L8.5224 12.3721L8.51053 12.5497L9.04604 17.688L10.1002 18.7L9.24442 19.5915L9.29443 20.0714L9.74291 24.0969L12.2747 25.869L9.84254 29.3439L9.41325 32.1525L11.2136 33.4127L14.1566 33.2081L15.5098 31.2747L17.9002 32.9478L18.4817 32.9074L24.5432 33.4676L28.1583 32.6269L28.3958 33.6483H31.1356L31.2237 32.6525L29.935 29.5533L31.5577 28.8785L31.6528 27.8037L30.3124 27.135L31.4493 24.856L30.3086 19.8836L30.4614 18.3435L29.7391 17.9832L30.6853 16.0865L31.0397 12.5147V10.6048L29.3516 8.1045L31.0397 6.96476V6.74877L27.192 7.92168L20.7486 7.16019L17.1862 6.93721Z" fill="white"/>
<path d="M26.5949 35.916H27.9084C25.5266 37.1018 22.8414 37.7695 20.0002 37.7695L19.5412 37.7637C16.6721 37.691 13.9727 36.9369 11.5969 35.6592L13.9494 35.4951C15.5637 36.1262 17.2993 36.516 19.1135 36.6113L20.0051 35.9258L20.8947 36.6104C22.8192 36.5084 24.6556 36.0767 26.3517 35.375L26.4631 35.3496L26.5949 35.916ZM6.49628 8.68164L6.92596 9.7168C4.86929 12.3281 3.5756 15.5686 3.38788 19.1035L4.0744 19.9951L3.38788 20.8867C3.58562 24.6507 5.03723 28.0807 7.32928 30.7734L7.10663 32.2266C4.18264 29.144 2.35183 25.0143 2.23651 20.458L2.23065 20C2.23065 15.5813 3.84373 11.5394 6.51288 8.43066L6.49628 8.68164ZM33.2775 8.19043C36.0719 11.3298 37.7697 15.4666 37.7697 20L37.7639 20.458C37.6542 24.7924 35.9916 28.7405 33.3127 31.7686L32.9006 30.7764L33.6965 30.4453L33.799 29.2832C35.4345 26.8575 36.4507 23.9799 36.6115 20.874L35.9357 19.9951L36.6115 19.1152C36.4332 15.7125 35.2307 12.582 33.3088 10.0225V9.91016L32.5012 8.71484L33.2775 8.19043ZM20.4582 2.23633C23.7178 2.31883 26.7588 3.28006 29.3547 4.89062L27.8683 5.34375C25.7695 4.21376 23.4018 3.51855 20.884 3.38672L20.0051 4.06445L19.1242 3.38672C17.3401 3.47928 15.6313 3.85547 14.0392 4.4668L11.6398 4.31641C14.1317 2.98531 16.9778 2.23047 20.0002 2.23047L20.4582 2.23633Z" fill="white"/>
<path d="M52.9128 18.906C54.9528 19.1518 56.6241 20.9706 56.6241 22.9614C56.6241 26.1566 54.2154 28 50.8728 28H43.401V27.9508C44.0154 27.4839 44.8511 26.3778 44.8511 24.1658V14.7277C44.8511 12.7123 44.1875 11.508 43.401 10.9672V10.9181H50.1846C53.8713 10.9181 55.7393 12.2945 55.7393 15.2193C55.7393 17.0872 54.3383 18.6111 52.9128 18.8323V18.906ZM49.988 13.3267H48.2183V17.7508H49.988C51.4135 17.7508 52.2737 16.9643 52.2737 15.3913C52.2737 13.9904 51.4381 13.3267 49.988 13.3267ZM50.3812 25.5913C52.2246 25.5913 53.1094 24.4607 53.1094 22.8386C53.1094 21.2164 52.2246 20.1349 50.3812 20.1349H48.2183V25.5913H50.3812ZM69.6715 24.7249C70.2107 26.2626 71.0694 27.5008 71.6286 27.9601V28H67.1154V27.9601C67.4549 27.7005 67.6146 26.8817 67.1154 25.5038L66.9357 25.0245H61.7834L61.6037 25.5038C61.0845 26.8817 61.2842 27.7005 61.5638 27.9601V28H57.3701V27.9601C57.9093 27.4808 58.768 26.2626 59.3072 24.7249L62.1629 16.4973C62.5623 15.3191 62.1828 14.4804 61.8034 14.1609V14.1209H67.0954V14.1609C66.716 14.5004 66.3166 15.3191 66.736 16.4973L69.6715 24.7249ZM64.2996 16.7769C64.1199 18.3146 63.6406 19.6526 63.1813 20.9506L62.4424 23.0674H66.2767L65.5378 20.9506C65.0785 19.6526 64.5792 18.3146 64.3795 16.7769H64.2996ZM81.568 13.9612L81.9075 17.6157L81.8675 17.6356C81.4082 16.8368 80.4696 16.1579 79.2714 16.1579H77.7737V24.8448C77.7737 26.5622 78.3328 27.6206 78.9918 27.9601V28H73.8197V27.9601C74.3988 27.6206 75.0378 26.5422 75.0378 24.8448V16.1579H73.5201C72.3219 16.1579 71.3833 16.8368 70.924 17.6356L70.8841 17.6157L71.2236 13.9612C72.1422 14.081 72.9809 14.1209 73.9594 14.1209H78.8321C79.8106 14.1209 80.6493 14.081 81.568 13.9612ZM93.3861 13.9612L93.7256 17.6157L93.6856 17.6356C93.2263 16.8368 92.2877 16.1579 91.0895 16.1579H89.5918V24.8448C89.5918 26.5622 90.151 27.6206 90.81 27.9601V28H85.6378V27.9601C86.2169 27.6206 86.8559 26.5422 86.8559 24.8448V16.1579H85.3382C84.14 16.1579 83.2014 16.8368 82.7421 17.6356L82.7022 17.6157L83.0417 13.9612C83.9603 14.081 84.799 14.1209 85.7776 14.1209H90.6502C91.6287 14.1209 92.4675 14.081 93.3861 13.9612ZM104.605 28.1598C103.846 28.02 103.307 28 102.388 28H95.2991V27.9601C95.7984 27.6206 96.3775 26.642 96.3775 25.0045V17.0365C96.3775 15.4589 95.8183 14.5004 95.2991 14.1609V14.1209H100.192V14.1609C99.6925 14.5004 99.1134 15.4789 99.1134 17.1164V26.003H101.09C102.828 26.003 104.226 25.4039 105.084 24.2057L105.124 24.2257L104.605 28.1598ZM116.362 24.1658L116.402 24.1858L115.842 28.1598C115.103 28.0399 114.584 28 113.406 28H106.357V27.9601C106.856 27.6206 107.435 26.642 107.435 25.0045V17.1164C107.435 15.4589 106.876 14.5004 106.357 14.1609V14.1209H113.526C114.325 14.1209 115.203 14.061 115.643 13.9612L115.982 17.5358L115.942 17.5558C115.463 16.5772 114.365 16.078 112.807 16.078H110.171V19.5927H111.689C113.346 19.5927 113.905 19.5727 114.804 19.4529L114.225 22.8078H114.185C113.845 21.9092 113.126 21.5497 112.008 21.5497H110.171V26.043H112.348C114.105 26.043 115.503 25.3839 116.362 24.1658ZM123.783 14.1209C126.958 14.1209 128.815 15.7585 128.815 18.6341C128.815 21.8892 126.958 23.4269 123.783 23.4269H122.145V25.0844C122.145 26.662 122.704 27.6206 123.223 27.9601V28H118.331V27.9601C118.83 27.6206 119.409 26.642 119.409 25.0045V17.0365C119.409 15.4589 118.85 14.5004 118.331 14.1609V14.1209H123.783ZM123.323 21.4499C125.16 21.4698 125.979 20.4913 125.979 18.7739C125.979 16.9367 125.141 16.098 123.323 16.098H122.145V21.4299L123.323 21.4499ZM139.903 28.1598C139.145 28.02 138.605 28 137.687 28H130.597V27.9601C131.097 27.6206 131.676 26.642 131.676 25.0045V17.0365C131.676 15.4589 131.117 14.5004 130.597 14.1609V14.1209H135.49V14.1609C134.991 14.5004 134.412 15.4789 134.412 17.1164V26.003H136.389C138.126 26.003 139.524 25.4039 140.383 24.2057L140.423 24.2257L139.903 28.1598ZM152.808 24.7249C153.347 26.2626 154.206 27.5008 154.765 27.9601V28H150.252V27.9601C150.591 27.7005 150.751 26.8817 150.252 25.5038L150.072 25.0245H144.92L144.74 25.5038C144.221 26.8817 144.421 27.7005 144.7 27.9601V28H140.506V27.9601C141.046 27.4808 141.904 26.2626 142.443 24.7249L145.299 16.4973C145.699 15.3191 145.319 14.4804 144.94 14.1609V14.1209H150.232V14.1609C149.852 14.5004 149.453 15.3191 149.872 16.4973L152.808 24.7249ZM147.436 16.7769C147.256 18.3146 146.777 19.6526 146.318 20.9506L145.579 23.0674H149.413L148.674 20.9506C148.215 19.6526 147.716 18.3146 147.516 16.7769H147.436ZM155.579 28V27.9601C156.079 27.6206 156.658 26.642 156.658 25.0045V17.0166C156.658 15.9382 156.318 14.6601 155.579 14.1609V14.1209H160.112C160.152 14.5203 160.272 14.9397 160.931 16.038L163.807 20.8708C164.406 21.8692 165.045 23.2871 165.644 24.8248H165.724C165.444 23.2272 165.404 21.8293 165.404 20.711V17.1164C165.404 15.4589 164.905 14.5004 164.386 14.1609V14.1209H168.999V14.1609C168.48 14.5004 167.921 15.4789 167.921 17.1164V25.0045C167.921 26.642 168.48 27.6206 168.999 27.9601V28H164.785C164.566 27.4608 164.186 26.7419 163.787 26.1029L160.971 21.5298C160.013 19.9921 159.493 18.8139 158.894 16.9766H158.814C159.134 18.8738 159.174 20.1718 159.174 21.6096V25.0045C159.174 26.662 159.673 27.6206 160.192 27.9601V28H155.579Z" fill="#724DDD"/>
</svg>
