<svg width="40" height="40" viewBox="0 0 40 40" fill="none" xmlns="http://www.w3.org/2000/svg">
<rect width="40" height="40" rx="20" fill="#724DDD"/>
<path d="M23.0243 19.4401C23.7293 19.5259 24.374 19.7746 24.9586 20.1863C25.5604 20.598 26.0332 21.1126 26.3771 21.7301C26.7382 22.3477 26.9187 22.9995 26.9187 23.6857C26.9187 25.3324 26.3599 26.6275 25.2423 27.571C24.1247 28.4973 22.6719 28.9604 20.8837 28.9604H13.0435V28.909C13.4561 28.6002 13.8086 28.1285 14.1009 27.4938C14.4103 26.8419 14.5651 25.9928 14.5651 24.9465V15.0659C14.5651 14.071 14.4189 13.2476 14.1267 12.5957C13.8516 11.9267 13.4905 11.4379 13.0435 11.1291V11.0776H20.1616C22.1045 11.0776 23.5573 11.4464 24.5202 12.1841C25.5002 12.9217 25.9902 14.0538 25.9902 15.5805C25.9902 16.2152 25.8441 16.807 25.5518 17.3559C25.2767 17.9048 24.907 18.3594 24.4428 18.7196C23.9958 19.0627 23.523 19.2771 23.0243 19.3629V19.4401ZM18.0984 13.5992V18.2308H19.9553C20.7118 18.2308 21.2964 18.0249 21.709 17.6132C22.1389 17.1844 22.3538 16.5668 22.3538 15.7606C22.3538 15.0402 22.1475 14.4998 21.7348 14.1396C21.3222 13.7794 20.729 13.5992 19.9553 13.5992H18.0984ZM20.3679 26.4388C21.3136 26.4388 22.0271 26.1815 22.5085 25.6669C22.99 25.1351 23.2307 24.4318 23.2307 23.557C23.2307 22.6822 22.99 21.996 22.5085 21.4985C22.0271 20.9839 21.3136 20.7266 20.3679 20.7266H18.0984V26.4388H20.3679Z" fill="white"/>
<path fill-rule="evenodd" clip-rule="evenodd" d="M14.1397 5.61009L7.86387 5.21729L7.64499 8.49198L8.71445 11.0639L7.43761 11.5948L7.37238 12.5708L7.96098 18.2186L8.49651 18.7327L8.06176 19.1856L8.16633 20.1889L8.67243 24.7321L10.6951 26.1479L8.76139 28.9106L8.18559 32.6777L10.892 34.572L14.7754 34.302L15.7886 32.8543L17.5785 34.1072L18.4688 34.0453L24.6214 34.6139L27.3105 33.9886L27.4951 34.7825H32.1739L32.3781 32.4746L31.4177 30.1651L32.627 29.6622L32.8508 27.1338L31.8336 26.6264L32.6457 24.9986L31.4556 19.8109L31.6672 17.6776L31.2603 17.4746L31.7934 16.4062L32.1739 12.5708V10.2578L30.9262 8.40986L32.1739 7.56751V5.21729L27.0888 6.76738L20.8506 6.03014L16.8716 5.78109L15.0744 6.9945L14.1397 5.61009ZM17.1862 6.93721L14.769 8.56919L13.5119 6.70724L8.92024 6.41984L8.79443 8.30216L10.1972 11.6756L8.5224 12.3721L8.51053 12.5497L9.04604 17.688L10.1002 18.7L9.24442 19.5915L9.29443 20.0714L9.74291 24.0969L12.2747 25.869L9.84254 29.3439L9.41325 32.1525L11.2136 33.4127L14.1566 33.2081L15.5098 31.2747L17.9002 32.9478L18.4817 32.9074L24.5432 33.4676L28.1583 32.6269L28.3958 33.6483H31.1356L31.2237 32.6525L29.935 29.5533L31.5577 28.8785L31.6528 27.8037L30.3124 27.135L31.4493 24.856L30.3086 19.8836L30.4614 18.3435L29.7391 17.9832L30.6853 16.0865L31.0397 12.5147V10.6048L29.3516 8.1045L31.0397 6.96476V6.74877L27.192 7.92168L20.7486 7.16019L17.1862 6.93721Z" fill="white"/>
<path d="M26.5949 35.916H27.9084C25.5266 37.1018 22.8414 37.7695 20.0002 37.7695L19.5412 37.7637C16.6721 37.691 13.9727 36.9369 11.5969 35.6592L13.9494 35.4951C15.5637 36.1262 17.2993 36.516 19.1135 36.6113L20.0051 35.9258L20.8947 36.6104C22.8192 36.5084 24.6556 36.0767 26.3517 35.375L26.4631 35.3496L26.5949 35.916ZM6.49628 8.68164L6.92596 9.7168C4.86929 12.3281 3.5756 15.5686 3.38788 19.1035L4.0744 19.9951L3.38788 20.8867C3.58562 24.6507 5.03723 28.0807 7.32928 30.7734L7.10663 32.2266C4.18264 29.144 2.35183 25.0143 2.23651 20.458L2.23065 20C2.23065 15.5813 3.84373 11.5394 6.51288 8.43066L6.49628 8.68164ZM33.2775 8.19043C36.0719 11.3298 37.7697 15.4666 37.7697 20L37.7639 20.458C37.6542 24.7924 35.9916 28.7405 33.3127 31.7686L32.9006 30.7764L33.6965 30.4453L33.799 29.2832C35.4345 26.8575 36.4507 23.9799 36.6115 20.874L35.9357 19.9951L36.6115 19.1152C36.4332 15.7125 35.2307 12.582 33.3088 10.0225V9.91016L32.5012 8.71484L33.2775 8.19043ZM20.4582 2.23633C23.7178 2.31883 26.7588 3.28006 29.3547 4.89062L27.8683 5.34375C25.7695 4.21376 23.4018 3.51855 20.884 3.38672L20.0051 4.06445L19.1242 3.38672C17.3401 3.47928 15.6313 3.85547 14.0392 4.4668L11.6398 4.31641C14.1317 2.98531 16.9778 2.23047 20.0002 2.23047L20.4582 2.23633Z" fill="white"/>
</svg>
