<svg width="4437" height="1020" viewBox="0 0 4437 1020" fill="none" xmlns="http://www.w3.org/2000/svg">
<path d="M587.132 495.711C605.109 497.898 621.549 504.24 636.456 514.739C651.802 525.237 663.858 538.359 672.628 554.106C681.836 569.854 686.439 586.475 686.439 603.973C686.439 645.964 672.189 678.989 643.691 703.049C615.192 726.669 578.145 738.478 532.546 738.478H332.621V737.168C343.142 729.293 352.131 717.265 359.585 701.08C367.474 684.456 371.422 662.804 371.422 636.124V384.168C371.422 358.799 367.694 337.802 360.243 321.178C353.228 304.119 344.02 291.654 332.621 283.78V282.467H514.133C563.677 282.467 600.723 291.871 625.277 310.683C650.267 329.491 662.762 358.36 662.762 397.291C662.762 413.476 659.036 428.567 651.583 442.563C644.568 456.56 635.14 468.153 623.303 477.338C611.905 486.087 599.848 491.554 587.132 493.742V495.711ZM461.521 346.768V464.873H508.872C528.163 464.873 543.07 459.623 553.591 449.125C564.554 438.19 570.034 422.441 570.034 401.883C570.034 383.513 564.773 369.733 554.249 360.548C543.728 351.363 528.601 346.768 508.872 346.768H461.521ZM519.393 674.177C543.509 674.177 561.703 667.616 573.979 654.494C586.257 640.933 592.395 622.999 592.395 600.691C592.395 578.384 586.257 560.886 573.979 548.2C561.703 535.077 543.509 528.516 519.393 528.516H461.521V674.177H519.393Z" fill="white"/>
<path fill-rule="evenodd" clip-rule="evenodd" d="M360.555 143.069L200.521 133.053L194.94 216.557L222.211 282.141L189.652 295.679L187.988 320.567L202.998 464.586L216.654 477.696L205.567 489.245L208.234 514.829L221.14 630.68L272.718 666.783L223.408 737.232L208.725 833.293L277.739 881.598L376.765 874.713L402.602 837.797L448.244 869.745L470.947 868.167L627.838 882.666L696.41 866.721L701.118 886.966H820.427L825.634 828.114L801.144 769.222L831.981 756.398L837.688 691.924L811.749 678.985L832.458 637.476L802.11 505.19L807.506 450.791L797.13 445.614L810.724 418.37L820.427 320.567V261.586L788.611 214.463L820.427 192.983V133.053L690.757 172.58L531.683 153.78L430.218 147.43L384.39 178.372L360.555 143.069ZM438.241 176.911L376.602 218.526L344.546 171.046L227.459 163.718L224.251 211.717L260.021 297.74L217.314 315.5L217.011 320.029L230.667 451.056L257.548 476.862L235.725 499.595L237.001 511.833L248.437 614.483L312.997 659.671L250.977 748.281L240.03 819.901L285.939 852.036L360.986 846.818L395.493 797.517L456.448 840.181L471.276 839.151L625.844 853.436L718.029 831.998L724.085 858.044H793.95L796.197 832.651L763.335 753.621L804.714 736.414L807.139 709.006L772.959 691.954L801.95 633.84L772.862 507.044L776.758 467.771L758.34 458.583L782.468 410.218L791.505 319.137V270.434L748.458 206.677L791.505 177.613V172.105L693.389 202.015L529.082 182.597L438.241 176.911Z" fill="white"/>
<path d="M678.165 915.858H711.66C650.924 946.096 582.451 963.122 510 963.122L498.296 962.974C425.134 961.12 356.299 941.891 295.716 909.31L355.705 905.125C396.87 921.218 441.128 931.158 487.39 933.588L510.125 916.108L532.81 933.565C581.885 930.964 628.713 919.956 671.964 902.062L674.804 901.415L678.165 915.858ZM165.651 221.382L176.607 247.778C124.162 314.367 91.1732 396.999 86.3863 487.139L103.893 509.875L86.3863 532.611C91.4287 628.593 128.445 716.058 186.892 784.722L181.214 821.778C106.653 743.172 59.967 637.865 57.0264 521.679L56.877 510C56.877 397.323 98.0105 294.255 166.074 214.982L165.651 221.382ZM848.572 208.856C919.829 288.91 963.123 394.398 963.123 510L962.975 521.679C960.177 632.206 917.781 732.883 849.469 810.099L838.961 784.798L859.256 776.355L861.87 746.722C903.575 684.866 929.488 611.487 933.589 532.287L916.356 509.875L933.589 487.438C929.042 400.669 898.378 320.841 849.37 255.574V252.709L828.776 222.228L848.572 208.856ZM521.679 57.0264C604.799 59.1301 682.345 83.6415 748.54 124.711L710.637 136.266C657.118 107.451 596.741 89.723 532.537 86.3613L510.125 103.643L487.663 86.3613C442.168 88.7216 398.594 98.3145 357.995 113.903L296.81 110.068C360.354 76.1254 432.929 56.877 510 56.877L521.679 57.0264Z" fill="white"/>
<path d="M1349.29 482.1C1401.31 488.368 1443.92 534.747 1443.92 585.512C1443.92 666.99 1382.5 713.997 1297.27 713.997H1106.73V712.742C1122.4 700.836 1143.71 672.631 1143.71 616.225V375.553C1143.71 324.16 1126.79 293.451 1106.73 279.66V278.408H1279.72C1373.73 278.408 1421.36 313.506 1421.36 388.089C1421.36 435.72 1385.64 474.58 1349.29 480.22V482.1ZM1274.7 339.827H1229.58V452.642H1274.7C1311.05 452.642 1332.99 432.586 1332.99 392.475C1332.99 356.752 1311.68 339.827 1274.7 339.827ZM1284.73 652.575C1331.74 652.575 1354.3 623.744 1354.3 582.381C1354.3 541.015 1331.74 513.437 1284.73 513.437H1229.58V652.575H1284.73ZM1776.63 630.482C1790.38 669.693 1812.28 701.267 1826.54 712.979V713.997H1711.45V712.979C1720.11 706.359 1724.18 685.48 1711.45 650.344L1706.87 638.121H1575.49L1570.9 650.344C1557.66 685.48 1562.76 706.359 1569.89 712.979V713.997H1462.95V712.979C1476.7 700.757 1498.59 669.693 1512.34 630.482L1585.16 420.678C1595.35 390.634 1585.67 369.247 1576 361.1V360.08H1710.94V361.1C1701.27 369.757 1691.08 390.634 1701.78 420.678L1776.63 630.482ZM1639.65 427.808C1635.07 467.019 1622.84 501.138 1611.13 534.237L1592.29 588.215H1690.06L1671.22 534.237C1659.51 501.138 1646.78 467.019 1641.69 427.808H1639.65ZM2079.99 356.007L2088.65 449.197L2087.63 449.704C2075.92 429.335 2051.98 412.023 2021.43 412.023H1983.24V633.539C1983.24 677.333 1997.5 704.322 2014.3 712.979V713.997H1882.41V712.979C1897.18 704.322 1913.47 676.823 1913.47 633.539V412.023H1874.77C1844.22 412.023 1820.28 429.335 1808.57 449.704L1807.55 449.197L1816.21 356.007C1839.64 359.062 1861.02 360.08 1885.97 360.08H2010.23C2035.18 360.08 2056.57 359.062 2079.99 356.007ZM2381.35 356.007L2390.01 449.197L2388.99 449.704C2377.28 429.335 2353.35 412.023 2322.79 412.023H2284.6V633.539C2284.6 677.333 2298.86 704.322 2315.66 712.979V713.997H2183.77V712.979C2198.54 704.322 2214.83 676.823 2214.83 633.539V412.023H2176.13C2145.58 412.023 2121.64 429.335 2109.93 449.704L2108.91 449.197L2117.57 356.007C2141 359.062 2162.38 360.08 2187.34 360.08H2311.59C2336.54 360.08 2357.93 359.062 2381.35 356.007ZM2667.44 718.072C2648.08 714.507 2634.34 713.997 2610.9 713.997H2430.14V712.979C2442.87 704.322 2457.64 679.368 2457.64 637.611V434.427C2457.64 394.199 2443.38 369.757 2430.14 361.1V360.08H2554.9V361.1C2542.17 369.757 2527.4 394.709 2527.4 436.465V663.073H2577.8C2622.12 663.073 2657.77 647.796 2679.65 617.242L2680.67 617.752L2667.44 718.072ZM2967.24 616.225L2968.26 616.735L2953.98 718.072C2935.14 715.014 2921.9 713.997 2891.86 713.997H2712.11V712.979C2724.84 704.322 2739.6 679.368 2739.6 637.611V436.465C2739.6 394.199 2725.35 369.757 2712.11 361.1V360.08H2894.92C2915.3 360.08 2937.69 358.552 2948.91 356.007L2957.55 447.16L2956.53 447.67C2944.32 422.715 2916.32 409.986 2876.59 409.986H2809.37V499.61H2848.08C2890.33 499.61 2904.59 499.1 2927.51 496.046L2912.75 581.596H2911.73C2903.06 558.681 2884.72 549.514 2856.21 549.514H2809.37V664.093H2864.88C2909.69 664.093 2945.34 647.286 2967.24 616.225ZM3156.48 360.08C3237.44 360.08 3284.79 401.838 3284.79 475.166C3284.79 558.171 3237.44 597.383 3156.48 597.383H3114.71V639.649C3114.71 679.878 3128.96 704.322 3142.2 712.979V713.997H3017.45V712.979C3030.17 704.322 3044.94 679.368 3044.94 637.611V434.427C3044.94 394.199 3030.68 369.757 3017.45 361.1V360.08H3156.48ZM3144.75 546.969C3191.59 547.477 3212.47 522.525 3212.47 478.731C3212.47 431.882 3191.1 410.496 3144.75 410.496H3114.71V546.459L3144.75 546.969ZM3567.54 718.072C3548.21 714.507 3534.44 713.997 3511.03 713.997H3330.23V712.979C3342.98 704.322 3357.75 679.368 3357.75 637.611V434.427C3357.75 394.199 3343.49 369.757 3330.23 361.1V360.08H3455V361.1C3442.28 369.757 3427.51 394.709 3427.51 436.465V663.073H3477.93C3522.22 663.073 3557.87 647.796 3579.78 617.242L3580.8 617.752L3567.54 718.072ZM3896.61 630.482C3910.36 669.693 3932.26 701.267 3946.52 712.979V713.997H3831.43V712.979C3840.08 706.359 3844.16 685.48 3831.43 650.344L3826.85 638.121H3695.47L3690.88 650.344C3677.64 685.48 3682.74 706.359 3689.86 712.979V713.997H3582.91V712.979C3596.68 700.757 3618.56 669.693 3632.31 630.482L3705.13 420.678C3715.33 390.634 3705.64 369.247 3695.98 361.1V360.08H3830.92V361.1C3821.23 369.757 3811.06 390.634 3821.74 420.678L3896.61 630.482ZM3759.63 427.808C3755.04 467.019 3742.82 501.138 3731.12 534.237L3712.27 588.215H3810.04L3791.2 534.237C3779.49 501.138 3766.77 467.019 3761.67 427.808H3759.63ZM3967.27 713.997V712.979C3980.02 704.322 3994.79 679.368 3994.79 637.611V433.92C3994.79 406.421 3986.12 373.829 3967.27 361.1V360.08H4082.86C4083.88 370.264 4086.94 380.959 4103.75 408.966L4177.09 532.202C4192.36 557.661 4208.66 593.818 4223.93 633.029H4225.97C4218.83 592.29 4217.81 556.644 4217.81 528.127V436.465C4217.81 394.199 4205.09 369.757 4191.85 361.1V360.08H4309.48V361.1C4296.25 369.757 4281.99 394.709 4281.99 436.465V637.611C4281.99 679.368 4296.25 704.322 4309.48 712.979V713.997H4202.03C4196.44 700.247 4186.75 681.915 4176.58 665.621L4104.77 549.007C4080.34 509.795 4067.08 479.751 4051.81 432.9H4049.77C4057.93 481.279 4058.95 514.378 4058.95 551.041V637.611C4058.95 679.878 4071.67 704.322 4084.9 712.979V713.997H3967.27Z" fill="white"/>
</svg>
