<svg width="1058" height="1058" viewBox="0 0 1058 1058" fill="none" xmlns="http://www.w3.org/2000/svg">
<path fill-rule="evenodd" clip-rule="evenodd" d="M373.995 148.39L208 138L202.211 224.616L230.498 292.642L196.725 306.685L195 332.5L210.569 481.885L224.733 495.484L213.234 507.462L216 534L229.387 654.167L282.887 691.614L231.739 764.688L216.509 864.328L288.093 914.432L390.809 907.291L417.61 869L464.953 902.137L488.5 900.5L651.238 915.54L722.363 899L727.246 920H851L856.402 858.956L831 797.868L862.985 784.568L868.903 717.692L842 704.271L863.479 661.216L832 524L837.598 467.575L826.836 462.206L840.935 433.945L851 332.5V271.321L818 222.444L851 200.163V138L716.5 179L551.5 159.5L446.255 152.913L398.718 185.007L373.995 148.39ZM454.576 183.492L390.641 226.658L357.391 177.409L235.941 169.808L232.613 219.595L269.717 308.824L225.418 327.244L225.104 331.941L239.269 467.851L267.151 494.619L244.515 518.197L245.838 530.89L257.701 637.367L324.667 684.239L260.336 776.149L248.981 850.437L296.601 883.768L374.443 878.357L410.236 827.219L473.461 871.473L488.842 870.404L649.168 885.221L744.788 862.985L751.07 890H823.538L825.868 863.662L791.781 781.687L834.702 763.839L837.218 735.411L801.763 717.724L831.834 657.445L801.662 525.923L805.703 485.19L786.599 475.659L811.626 425.492L821 331.016V280.501L776.349 214.367L821 184.221V178.508L719.228 209.531L548.8 189.39L454.576 183.492Z" fill="white"/>
<path d="M703.422 950H738.179C675.181 981.362 604.15 999 529 999C448.587 999 372.891 978.804 306.706 943.21L368.734 938.898C411.481 955.624 457.484 965.858 505.528 968.383L529.125 950.226L552.705 968.37C603.76 965.66 652.505 954.245 697.485 935.585L699.938 935.016L703.422 950ZM171.808 229.637L183.164 256.947C128.754 326.018 94.5928 411.785 89.6289 505.298L107.762 528.862L89.6152 552.444C94.8437 652.034 133.187 742.85 193.84 814.087L187.979 852.426C108.043 768.168 59 654.312 59 529C59 412.129 101.657 305.223 172.251 222.998L171.808 229.637ZM880.197 216.647C954.1 299.681 999 409.097 999 529C999 648.396 954.478 757.392 881.133 840.297L870.219 814.051L891.268 805.298L893.962 774.846C937.299 710.637 964.139 634.375 968.4 552.141L950.488 528.863L968.387 505.602C963.669 415.554 931.877 332.678 881 264.96V262.143L859.65 230.521L880.197 216.647ZM529 59C619.808 59 704.6 84.754 776.473 129.354L737.255 141.31C681.71 111.41 619.004 93.0985 552.371 89.6113L529.125 107.5L505.861 89.5986C458.609 92.0468 413.329 101.95 371.174 118.153L307.824 114.188C373.743 78.9674 449.04 59 529 59Z" fill="white"/>
<path d="M487.559 683.423L464.748 558.846C548.911 506.019 591.386 453.981 591.386 402.731C591.386 345.173 561.496 315.212 504.077 315.212C443.511 315.212 405.755 334.135 369.573 380.654L368 379.865L386.878 267.904C426.993 245.827 474.974 234 521.381 234C622.849 234 696 299.442 696 390.115C696 471.327 646.446 517.058 593.746 565.942C556.777 599.846 515.875 635.327 489.132 683.423H487.559ZM515.089 849C475.76 849 445.084 818.25 445.084 779.615C445.084 740.981 476.547 710.231 515.089 710.231C553.631 710.231 583.52 740.192 583.52 779.615C583.52 818.25 553.631 849 515.089 849Z" fill="white"/>
</svg>
